<mxfile host="app.diagrams.net" modified="2021-07-31T07:25:19.641Z" agent="5.0 (Macintosh; Intel Mac OS X 10_16_0) AppleWebKit/537.36 (KHTML, like Gecko) Chrome/81.0.4044.138 Safari/537.36" etag="WTj4HVu23Z8irpm6IcSb" version="14.9.3" type="github">
  <diagram id="KH7qL_hgCisb-ZAgvjp8" name="Page-1">
    <mxGraphModel dx="1186" dy="654" grid="1" gridSize="10" guides="1" tooltips="1" connect="1" arrows="1" fold="1" page="1" pageScale="1" pageWidth="827" pageHeight="1169" math="0" shadow="0">
      <root>
        <mxCell id="0" />
        <mxCell id="1" parent="0" />
        <mxCell id="2OhmoV6hdMlIxnM7W_6c-3" value="" style="edgeStyle=orthogonalEdgeStyle;rounded=0;orthogonalLoop=1;jettySize=auto;html=1;" parent="1" source="2OhmoV6hdMlIxnM7W_6c-1" target="2OhmoV6hdMlIxnM7W_6c-2" edge="1">
          <mxGeometry relative="1" as="geometry" />
        </mxCell>
        <mxCell id="2OhmoV6hdMlIxnM7W_6c-7" value="" style="edgeStyle=orthogonalEdgeStyle;rounded=0;orthogonalLoop=1;jettySize=auto;html=1;" parent="1" source="2OhmoV6hdMlIxnM7W_6c-1" target="2OhmoV6hdMlIxnM7W_6c-6" edge="1">
          <mxGeometry relative="1" as="geometry" />
        </mxCell>
        <mxCell id="2OhmoV6hdMlIxnM7W_6c-1" value="Node-0&lt;br&gt;访问次数：3" style="rounded=0;whiteSpace=wrap;html=1;" parent="1" vertex="1">
          <mxGeometry x="110" y="80" width="120" height="60" as="geometry" />
        </mxCell>
        <mxCell id="2OhmoV6hdMlIxnM7W_6c-5" value="" style="edgeStyle=orthogonalEdgeStyle;rounded=0;orthogonalLoop=1;jettySize=auto;html=1;" parent="1" source="2OhmoV6hdMlIxnM7W_6c-2" target="2OhmoV6hdMlIxnM7W_6c-4" edge="1">
          <mxGeometry relative="1" as="geometry" />
        </mxCell>
        <mxCell id="2OhmoV6hdMlIxnM7W_6c-9" value="" style="edgeStyle=orthogonalEdgeStyle;rounded=0;orthogonalLoop=1;jettySize=auto;html=1;" parent="1" source="2OhmoV6hdMlIxnM7W_6c-2" target="2OhmoV6hdMlIxnM7W_6c-8" edge="1">
          <mxGeometry relative="1" as="geometry" />
        </mxCell>
        <mxCell id="2OhmoV6hdMlIxnM7W_6c-2" value="Node-1&lt;br&gt;访问次数：5" style="rounded=0;whiteSpace=wrap;html=1;" parent="1" vertex="1">
          <mxGeometry x="110" y="220" width="120" height="60" as="geometry" />
        </mxCell>
        <mxCell id="2OhmoV6hdMlIxnM7W_6c-4" value="Node-n" style="rounded=0;whiteSpace=wrap;html=1;" parent="1" vertex="1">
          <mxGeometry x="110" y="360" width="120" height="60" as="geometry" />
        </mxCell>
        <mxCell id="7cCf_1qZLikzb1TNCri2-2" value="" style="edgeStyle=orthogonalEdgeStyle;rounded=0;orthogonalLoop=1;jettySize=auto;html=1;" edge="1" parent="1" source="2OhmoV6hdMlIxnM7W_6c-6" target="7cCf_1qZLikzb1TNCri2-1">
          <mxGeometry relative="1" as="geometry" />
        </mxCell>
        <mxCell id="2OhmoV6hdMlIxnM7W_6c-6" value="Node-3&lt;br&gt;访问次数：1" style="rounded=0;whiteSpace=wrap;html=1;" parent="1" vertex="1">
          <mxGeometry x="310" y="80" width="120" height="60" as="geometry" />
        </mxCell>
        <mxCell id="2OhmoV6hdMlIxnM7W_6c-11" value="" style="edgeStyle=orthogonalEdgeStyle;rounded=0;orthogonalLoop=1;jettySize=auto;html=1;" parent="1" source="2OhmoV6hdMlIxnM7W_6c-8" target="2OhmoV6hdMlIxnM7W_6c-10" edge="1">
          <mxGeometry relative="1" as="geometry" />
        </mxCell>
        <mxCell id="2OhmoV6hdMlIxnM7W_6c-8" value="Node-2&lt;br&gt;访问次数：2" style="rounded=0;whiteSpace=wrap;html=1;" parent="1" vertex="1">
          <mxGeometry x="310" y="220" width="120" height="60" as="geometry" />
        </mxCell>
        <mxCell id="2OhmoV6hdMlIxnM7W_6c-10" value="Node-4&lt;br&gt;访问次数：2" style="rounded=0;whiteSpace=wrap;html=1;" parent="1" vertex="1">
          <mxGeometry x="510" y="220" width="120" height="60" as="geometry" />
        </mxCell>
        <mxCell id="7cCf_1qZLikzb1TNCri2-4" value="" style="edgeStyle=orthogonalEdgeStyle;rounded=0;orthogonalLoop=1;jettySize=auto;html=1;" edge="1" parent="1" source="2OhmoV6hdMlIxnM7W_6c-12" target="7cCf_1qZLikzb1TNCri2-3">
          <mxGeometry relative="1" as="geometry" />
        </mxCell>
        <mxCell id="2OhmoV6hdMlIxnM7W_6c-12" value="0" style="rounded=0;whiteSpace=wrap;html=1;" parent="1" vertex="1">
          <mxGeometry x="30" y="480" width="120" height="60" as="geometry" />
        </mxCell>
        <mxCell id="2uu5obWxTMxAZoZWr3cr-12" value="" style="edgeStyle=orthogonalEdgeStyle;rounded=0;orthogonalLoop=1;jettySize=auto;html=1;" parent="1" source="2OhmoV6hdMlIxnM7W_6c-13" target="2uu5obWxTMxAZoZWr3cr-11" edge="1">
          <mxGeometry relative="1" as="geometry" />
        </mxCell>
        <mxCell id="2OhmoV6hdMlIxnM7W_6c-13" value="3" style="rounded=0;whiteSpace=wrap;html=1;" parent="1" vertex="1">
          <mxGeometry x="520" y="480" width="120" height="60" as="geometry" />
        </mxCell>
        <mxCell id="2uu5obWxTMxAZoZWr3cr-6" value="" style="edgeStyle=orthogonalEdgeStyle;rounded=0;orthogonalLoop=1;jettySize=auto;html=1;" parent="1" source="2OhmoV6hdMlIxnM7W_6c-14" target="2uu5obWxTMxAZoZWr3cr-5" edge="1">
          <mxGeometry relative="1" as="geometry" />
        </mxCell>
        <mxCell id="2OhmoV6hdMlIxnM7W_6c-14" value="1" style="rounded=0;whiteSpace=wrap;html=1;" parent="1" vertex="1">
          <mxGeometry x="190" y="480" width="120" height="60" as="geometry" />
        </mxCell>
        <mxCell id="2uu5obWxTMxAZoZWr3cr-10" value="" style="edgeStyle=orthogonalEdgeStyle;rounded=0;orthogonalLoop=1;jettySize=auto;html=1;" parent="1" source="2OhmoV6hdMlIxnM7W_6c-16" target="2uu5obWxTMxAZoZWr3cr-8" edge="1">
          <mxGeometry relative="1" as="geometry" />
        </mxCell>
        <mxCell id="2OhmoV6hdMlIxnM7W_6c-16" value="2" style="rounded=0;whiteSpace=wrap;html=1;" parent="1" vertex="1">
          <mxGeometry x="354" y="480" width="120" height="60" as="geometry" />
        </mxCell>
        <mxCell id="2OhmoV6hdMlIxnM7W_6c-19" value="4" style="rounded=0;whiteSpace=wrap;html=1;" parent="1" vertex="1">
          <mxGeometry x="670" y="480" width="120" height="60" as="geometry" />
        </mxCell>
        <mxCell id="2uu5obWxTMxAZoZWr3cr-14" value="" style="edgeStyle=orthogonalEdgeStyle;rounded=0;orthogonalLoop=1;jettySize=auto;html=1;" parent="1" source="2OhmoV6hdMlIxnM7W_6c-21" target="2uu5obWxTMxAZoZWr3cr-13" edge="1">
          <mxGeometry relative="1" as="geometry" />
        </mxCell>
        <mxCell id="2OhmoV6hdMlIxnM7W_6c-21" value="5" style="rounded=0;whiteSpace=wrap;html=1;" parent="1" vertex="1">
          <mxGeometry x="827" y="480" width="120" height="60" as="geometry" />
        </mxCell>
        <mxCell id="2uu5obWxTMxAZoZWr3cr-5" value="Node-3&lt;br&gt;访问次数：1" style="rounded=0;whiteSpace=wrap;html=1;" parent="1" vertex="1">
          <mxGeometry x="190" y="620" width="120" height="60" as="geometry" />
        </mxCell>
        <mxCell id="2uu5obWxTMxAZoZWr3cr-7" value="" style="edgeStyle=orthogonalEdgeStyle;rounded=0;orthogonalLoop=1;jettySize=auto;html=1;" parent="1" source="2uu5obWxTMxAZoZWr3cr-8" target="2uu5obWxTMxAZoZWr3cr-9" edge="1">
          <mxGeometry relative="1" as="geometry" />
        </mxCell>
        <mxCell id="2uu5obWxTMxAZoZWr3cr-8" value="Node-2&lt;br&gt;访问次数：2" style="rounded=0;whiteSpace=wrap;html=1;" parent="1" vertex="1">
          <mxGeometry x="354" y="620" width="120" height="60" as="geometry" />
        </mxCell>
        <mxCell id="2uu5obWxTMxAZoZWr3cr-9" value="Node-4&lt;br&gt;访问次数：2" style="rounded=0;whiteSpace=wrap;html=1;" parent="1" vertex="1">
          <mxGeometry x="354" y="740" width="120" height="60" as="geometry" />
        </mxCell>
        <mxCell id="2uu5obWxTMxAZoZWr3cr-11" value="Node-0&lt;br&gt;访问次数：3" style="rounded=0;whiteSpace=wrap;html=1;" parent="1" vertex="1">
          <mxGeometry x="520" y="620" width="120" height="60" as="geometry" />
        </mxCell>
        <mxCell id="2uu5obWxTMxAZoZWr3cr-13" value="Node-1&lt;br&gt;访问次数：5" style="rounded=0;whiteSpace=wrap;html=1;" parent="1" vertex="1">
          <mxGeometry x="827" y="610" width="120" height="60" as="geometry" />
        </mxCell>
        <mxCell id="7cCf_1qZLikzb1TNCri2-1" value="Node-5&lt;br&gt;访问次数：0" style="rounded=0;whiteSpace=wrap;html=1;" vertex="1" parent="1">
          <mxGeometry x="510" y="80" width="120" height="60" as="geometry" />
        </mxCell>
        <mxCell id="7cCf_1qZLikzb1TNCri2-3" value="Node-5&lt;br&gt;访问次数：0" style="rounded=0;whiteSpace=wrap;html=1;" vertex="1" parent="1">
          <mxGeometry x="30" y="620" width="120" height="60" as="geometry" />
        </mxCell>
      </root>
    </mxGraphModel>
  </diagram>
</mxfile>
